<?xml version="1.0" encoding="utf-8"?>
<!-- Generator: Adobe Illustrator 27.0.1, SVG Export Plug-In . SVG Version: 6.00 Build 0)  -->
<svg version="1.1" xmlns="http://www.w3.org/2000/svg" xmlns:xlink="http://www.w3.org/1999/xlink" x="0px" y="0px"
	 viewBox="0 0 877.9 255.2" style="enable-background:new 0 0 877.9 255.2;" xml:space="preserve">
<style type="text/css">
	.st0{fill:#FFFFFF;}
	.st1{fill:#2C48DC;}
	.st2{fill:#FF8014;}
	.st3{fill:#E8ECFC;}
	.st4{fill:#20222E;}
</style>
<g id="Guides">
</g>
<g id="Artwork">
	<g>
		<path d="M421.5,59.1h19.3l10.9,36.2c0.8,2.8,1.2,5.1,1.4,7.2h0.2c0.2-2.1,0.7-4.4,1.5-7.3l10.4-36h19.6v59.1h-12.8V77.9
			c0-2.2,0.1-4.4,0.3-6.7H472c-0.2,1.7-0.7,4.2-1.2,5.7l-11.9,41.2h-11.8L434.7,77c-0.6-1.6-1.1-4.1-1.2-5.7h-0.2
			c0.2,2,0.3,4.2,0.3,6.6v40.3h-12V59.1z"/>
		<path d="M489.8,106.9c0-3.9,1.4-7,4.2-9c2.7-1.9,6.7-3.2,13.1-4.1l10.1-1.4V91c0-4.7-2-6.8-6.2-6.8c-4.1,0-6.4,2.2-6.7,6.2h-13.2
			c0.7-9.2,8.2-14.7,20-14.7c13.4,0,19.4,5.2,19.4,17.2v13.8c0,4.9,0.4,9,1.2,11.6h-13c-0.4-2-0.6-4.2-0.7-6.6
			c-2.1,4.7-7.4,7.6-13.9,7.6C495.5,119.2,489.8,114.3,489.8,106.9z M517.6,102.3V99l-7.2,1.2c-4.9,0.9-7.2,2.7-7.2,5.7
			c0,2.9,2.3,4.8,5.8,4.8C514.1,110.7,517.6,107.3,517.6,102.3z"/>
		<path d="M535.9,76.6h12.8v8c2.9-6.1,7.5-9,13.8-9c9,0,13.6,5.7,13.6,16.8v25.8h-13.3v-24c0-5.7-2-8.5-6.2-8.5
			c-4.7,0-7.2,3.6-7.2,10v22.5h-13.4V76.6z"/>
		<path d="M582,59.2h13.4V84c2.6-5.7,7-8.4,13.2-8.4c9,0,13.6,5.7,13.6,16.7v25.9h-13.3V93.6c0-5.2-2.1-7.9-6.2-7.9
			c-4.7,0-7.3,3.6-7.3,10.1v22.4H582V59.2z"/>
		<path d="M625.9,106.9c0-3.9,1.4-7,4.2-9c2.7-1.9,6.7-3.2,13.1-4.1l10.1-1.4V91c0-4.7-2-6.8-6.2-6.8c-4.1,0-6.4,2.2-6.7,6.2h-13.2
			c0.7-9.2,8.2-14.7,20-14.7c13.4,0,19.4,5.2,19.4,17.2v13.8c0,4.9,0.4,9,1.2,11.6h-13c-0.4-2-0.6-4.2-0.7-6.6
			c-2.1,4.7-7.4,7.6-13.9,7.6C631.7,119.2,625.9,114.3,625.9,106.9z M653.7,102.3V99l-7.2,1.2c-4.9,0.9-7.2,2.7-7.2,5.7
			c0,2.9,2.3,4.8,5.8,4.8C650.3,110.7,653.7,107.3,653.7,102.3z"/>
		<path d="M715.4,85.5v16.1c0,4.2,2.1,6.3,6.1,6.3c1.6,0,2.6-0.2,3.8-0.4v10.6c-3.1,0.6-5.2,0.8-7.6,0.8c-11.1,0-15.6-5-15.6-14.1
			V85.5h-13.8v16.1c0,4.2,2.1,6.3,6.1,6.3c1.6,0,2.6-0.2,3.8-0.4v10.6c-3.1,0.6-5.2,0.8-7.6,0.8c-11.1,0-15.6-5-15.6-14.1V85.5h-7.2
			v-8.9h7.2v-10l13.3-5.2v15.1h13.8v-10l13.3-5.2v15.1h9.9v8.9H715.4z"/>
		<path d="M728.3,106.9c0-3.9,1.4-7,4.2-9c2.7-1.9,6.7-3.2,13.1-4.1l10.1-1.4V91c0-4.7-2-6.8-6.2-6.8c-4.1,0-6.4,2.2-6.7,6.2h-13.2
			c0.7-9.2,8.2-14.7,20-14.7c13.4,0,19.4,5.2,19.4,17.2v13.8c0,4.9,0.4,9,1.2,11.6h-13c-0.4-2-0.6-4.2-0.7-6.6
			c-2.1,4.7-7.4,7.6-13.9,7.6C734.1,119.2,728.3,114.3,728.3,106.9z M756.1,102.3V99l-7.2,1.2c-4.9,0.9-7.2,2.7-7.2,5.7
			c0,2.9,2.3,4.8,5.8,4.8C752.7,110.7,756.1,107.3,756.1,102.3z"/>
		<path d="M774.4,76.6h12.8v8c2.9-6.1,7.5-9,13.8-9c9,0,13.6,5.7,13.6,16.8v25.8h-13.3v-24c0-5.7-2-8.5-6.2-8.5
			c-4.7,0-7.2,3.6-7.2,10v22.5h-13.4V76.6z"/>
		<path d="M421.5,196.1V137h14.1v59.1H421.5z"/>
		<path d="M441.6,154.5h12.8v8c2.9-6.1,7.5-9,13.8-9c9,0,13.6,5.7,13.6,16.8v25.8h-13.3v-24c0-5.7-2-8.5-6.2-8.5
			c-4.7,0-7.2,3.6-7.2,10v22.5h-13.4V154.5z"/>
		<path d="M525.7,154.5h7.2v-10l13.3-5.2v15.1h9.9v8.9h-9.9v16.1c0,4.2,2.1,6.3,6.1,6.3c1.6,0,2.6-0.2,3.8-0.4V196
			c-3.1,0.6-5.2,0.8-7.6,0.8c-11.1,0-15.6-5-15.6-14.1v-19.3h-7.2V154.5z"/>
		<path d="M561.1,136.3H575v12.2h-13.9V136.3z M561.3,154.5h13.4v41.6h-13.4V154.5z"/>
		<path d="M578.4,154.5h7.2v-10l13.3-5.2v15.1h9.9v8.9H599v16.1c0,4.2,2.1,6.3,6.1,6.3c1.6,0,2.6-0.2,3.8-0.4V196
			c-3.1,0.6-5.2,0.8-7.6,0.8c-11.1,0-15.6-5-15.6-14.1v-19.3h-7.2V154.5z"/>
		<path d="M614.5,181.4v-27h13.3v24.6c0,5.2,2.1,7.8,6,7.8c4.3,0,7-3.4,7-8.7v-23.8h13.4v41.6h-12.7v-7.6c-2,5.2-6.9,8.6-13,8.6
			C618.7,197.1,614.5,191.2,614.5,181.4z"/>
		<path d="M657.9,154.5h7.2v-10l13.3-5.2v15.1h9.9v8.9h-9.9v16.1c0,4.2,2.1,6.3,6.1,6.3c1.6,0,2.6-0.2,3.8-0.4V196
			c-3.1,0.6-5.2,0.8-7.6,0.8c-11.1,0-15.6-5-15.6-14.1v-19.3h-7.2V154.5z"/>
		<path d="M731.6,178.3h-28.9c0.1,5.7,4,9.2,9.6,9.2c4.1,0,7.2-2,9.1-5.8l9.8,4.5c-3.3,6.8-10.4,10.9-19.1,10.9
			c-13.7,0-22.1-7.9-22.1-21.4c0-13.7,8.2-22.2,21.1-22.2c13.1,0,20.4,7.6,20.4,20.8V178.3z M718.7,170.5c0-5.9-2.7-9.1-7.7-9.1
			c-5.2,0-8.1,3.5-8.2,9.4h16V170.5z"/>
		<path d="M523.9,183.8c0,7.6-7.1,13.3-18.9,13.3c-8.7,0-16.4-2.5-21-9.7l7.7-5.7c2.8,3.7,6.7,6.2,12.2,6.2c5.6,0,8.5-1.3,8.5-3.6
			c0-2.8-2.6-3-7.7-4l-7.3-1.3c-6.5-1.3-11.1-5.3-11.1-12.4c0-7.9,6.4-13.1,17.4-13.1c3.6,0,7.2,0.5,10.5,1.9c4,1.7,7.4,4.7,9.1,8.9
			c-2.7,1.2-6.1,2.6-8.8,3.8c-2.6-4-5.7-5.7-10.8-5.7c-3.8,0-5.7,1.2-5.7,3.5c0,2,1.2,2.8,4.3,3.4l8,1.5
			C519.4,172.9,523.9,174.9,523.9,183.8z"/>
	</g>
	<rect x="63.3" y="59.1" width="37" height="137"/>
	<rect x="138" y="59.1" width="37" height="137"/>
	<rect x="212.7" y="59.1" width="37" height="137"/>
	<polygon points="354.1,59.1 324.6,196.1 286.7,196.1 316.2,59.1 	"/>
</g>
</svg>
